<?xml version="1.0" encoding="UTF-8"?>
<svg version="1.1" xmlns="http://www.w3.org/2000/svg" width="380" height="288">
<path d="M0 0 C6.48130667 5.82358422 9.08477006 12.4681941 9.55712891 21.12133789 C9.97138139 41.96123257 -2.18028646 59.99585003 -14.96484375 75.47265625 C-15.59447021 76.24657715 -15.59447021 76.24657715 -16.23681641 77.03613281 C-28.98918838 92.68566451 -42.99919148 109.29074907 -59.96484375 120.47265625 C-61.28484375 119.81265625 -62.60484375 119.15265625 -63.96484375 118.47265625 C-63.96182755 119.69659592 -63.95881134 120.92053558 -63.95570374 122.18156433 C-63.93175008 133.75932755 -63.94478026 145.33654814 -63.99330997 156.91424084 C-64.01708601 162.86544782 -64.02817772 168.81609675 -64.00952148 174.76733398 C-63.99197037 180.51894635 -64.00873101 186.26956007 -64.04852104 192.02105141 C-64.05776049 194.20687454 -64.05497878 196.39278511 -64.03953743 198.57857323 C-63.93043775 215.69504758 -66.33445944 226.51071092 -78.57421875 239.3125 C-86.70511611 246.65953634 -95.39098651 250.01355477 -106.27734375 249.71484375 C-130.01687569 247.57552546 -144.25715909 231.34424718 -159.96484375 215.47265625 C-162.56614428 212.84479248 -165.17073751 210.22025603 -167.77734375 207.59765625 C-168.36999023 206.99671143 -168.96263672 206.3957666 -169.57324219 205.77661133 C-172.48407767 202.75162628 -172.48407767 202.75162628 -175.96484375 200.47265625 C-176.29484375 201.46265625 -176.62484375 202.45265625 -176.96484375 203.47265625 C-179.50152412 205.10099239 -182.00054298 206.55444634 -184.65234375 207.97265625 C-185.43802734 208.40046387 -186.22371094 208.82827148 -187.03320312 209.26904297 C-193.61969005 212.82281972 -200.28144631 216.23037278 -206.96484375 219.59765625 C-207.92608154 220.08298828 -208.88731934 220.56832031 -209.87768555 221.06835938 C-210.77269775 221.51373047 -211.66770996 221.95910156 -212.58984375 222.41796875 C-213.78480469 223.01375732 -213.78480469 223.01375732 -215.00390625 223.62158203 C-216.96484375 224.47265625 -216.96484375 224.47265625 -218.96484375 224.47265625 C-219.15046875 225.27703125 -219.33609375 226.08140625 -219.52734375 226.91015625 C-223.03693881 235.60784836 -229.67037273 242.18662437 -237.96484375 246.47265625 C-244.91445089 249.1874197 -251.29930261 249.91930135 -258.71484375 249.78515625 C-260.07416016 249.78999023 -260.07416016 249.78999023 -261.4609375 249.79492188 C-265.32462663 249.76389955 -268.4289559 249.65728428 -272.10546875 248.390625 C-275.92943818 247.16298454 -279.11306669 247.7393108 -282.96484375 248.47265625 C-284.14433594 248.69501953 -284.14433594 248.69501953 -285.34765625 248.921875 C-287.89090004 249.42015944 -290.42811438 249.9422492 -292.96484375 250.47265625 C-311.9429731 254.44081057 -333.66330133 257.29423438 -350.76953125 246.2109375 C-357.11400327 241.18728972 -360.42609128 235.05205224 -361.37109375 227.01953125 C-362.06894709 198.75647086 -343.75442989 175.72965664 -325.96484375 155.47265625 C-325.21460938 154.61027344 -324.464375 153.74789062 -323.69140625 152.859375 C-319.46275675 148.07352078 -315.07159639 143.45806521 -310.58984375 138.91015625 C-310.07752197 138.38478271 -309.5652002 137.85940918 -309.03735352 137.31811523 C-306.69101845 134.9663281 -305.16283121 133.53865207 -301.96484375 132.47265625 C-301.30484375 132.80265625 -300.64484375 133.13265625 -299.96484375 133.47265625 C-299.96936806 131.86558304 -299.96936806 131.86558304 -299.97398376 130.2260437 C-299.99796967 120.07602991 -299.98484337 109.92663457 -299.93637753 99.77670097 C-299.91263244 94.55975518 -299.90147747 89.34344489 -299.92016602 84.12646484 C-299.93775716 79.08153709 -299.92087843 74.0377447 -299.88116646 68.99295425 C-299.87194898 67.07869544 -299.87467133 65.16433668 -299.89015007 63.25011826 C-300.0073415 47.18264211 -297.07687234 35.55638096 -285.4765625 23.6015625 C-276.99522058 16.41286678 -267.96253124 13.85499197 -257.03125 14.69921875 C-234.56970039 17.67851402 -219.61046715 33.5633898 -204.50878906 48.96508789 C-201.53534919 52.10642645 -201.53534919 52.10642645 -197.96484375 54.47265625 C-197.73410156 53.87662598 -197.50335938 53.2805957 -197.265625 52.66650391 C-195.6145638 49.88188755 -193.95699604 48.97001247 -191.15234375 47.37109375 C-190.16717773 46.80366455 -189.18201172 46.23623535 -188.16699219 45.65161133 C-186.58192871 44.75865356 -186.58192871 44.75865356 -184.96484375 43.84765625 C-183.89008789 43.22592529 -182.81533203 42.60419434 -181.70800781 41.96362305 C-176.70308458 39.0834524 -171.68280897 36.2898561 -166.51171875 33.71875 C-156.86439841 29.34459475 -156.86439841 29.34459475 -151.21484375 20.91015625 C-150.90740234 19.53923828 -150.90740234 19.53923828 -150.59375 18.140625 C-149.51380703 13.55925205 -146.82589428 10.13424403 -143.96484375 6.47265625 C-143.48660156 5.85648438 -143.00835937 5.2403125 -142.515625 4.60546875 C-136.60839675 -2.09038191 -125.95698021 -7.91577433 -116.94116211 -8.7043457 C-96.09597438 -9.30223647 -96.09597438 -9.30223647 -87.1796875 -3.33203125 C-80.84184357 -1.02939307 -71.81803768 -4.58530881 -65.46484375 -6.02734375 C-44.2586851 -10.84067418 -18.33610529 -14.25331445 0 0 Z M-68.96484375 16.47265625 C-68.74828125 16.97410156 -68.53171875 17.47554687 -68.30859375 17.9921875 C-64.26614971 28.97790348 -63.92689764 43.34007391 -68.7109375 54.125 C-75.08382222 66.05678729 -83.12965187 73.76305041 -95.96484375 78.47265625 C-108.04629537 81.92805726 -121.48745493 80.05239504 -132.34375 74.1875 C-141.76610373 68.46393826 -147.62448559 60.46800027 -151.96484375 50.47265625 C-156.51309487 51.85219202 -160.49900491 53.68839486 -164.67578125 55.94921875 C-165.28878082 56.27932953 -165.9017804 56.60944031 -166.53335571 56.94955444 C-168.47129217 57.99447682 -170.40558851 59.0459381 -172.33984375 60.09765625 C-173.66122237 60.81163479 -174.9828348 61.52518081 -176.3046875 62.23828125 C-179.52745775 63.97808076 -182.74699962 65.72375892 -185.96484375 67.47265625 C-185.31572021 68.11960449 -184.66659668 68.76655273 -183.99780273 69.43310547 C-180.92150959 72.50919658 -177.86728647 75.60691656 -174.81129456 78.70315552 C-171.44449501 82.11040366 -168.06950039 85.50948585 -164.6940918 88.90820312 C-162.92961689 90.68770103 -161.16785178 92.46989033 -159.40893555 94.25488281 C-136.03611802 119.21742627 -136.03611802 119.21742627 -104.58984375 129.78515625 C-91.24476048 129.39602003 -80.02637062 121.76607258 -70.96484375 112.47265625 C-69.12867192 110.20318219 -67.5516797 107.92969257 -65.96484375 105.47265625 C-65.30484375 106.79265625 -64.64484375 108.11265625 -63.96484375 109.47265625 C-63.59875 109.02277344 -63.23265625 108.57289062 -62.85546875 108.109375 C-58.7219268 103.1983335 -54.20532999 98.84490593 -49.45141602 94.54833984 C-32.53378804 79.25164188 -7.02718446 54.28587533 -4.76171875 30.32421875 C-4.65561533 25.28430629 -4.90003342 21.68677046 -7.96484375 17.47265625 C-22.85010183 3.73241803 -51.5441546 11.87769855 -68.96484375 16.47265625 Z M-303.31640625 153.69140625 C-304.00347656 154.3771875 -304.69054687 155.06296875 -305.3984375 155.76953125 C-306.12160156 156.4965625 -306.84476563 157.22359375 -307.58984375 157.97265625 C-308.28980469 158.66875 -308.98976563 159.36484375 -309.7109375 160.08203125 C-325.30591084 175.70593775 -346.50588213 197.53319565 -347.40234375 220.91015625 C-347.14559167 226.25915794 -345.53160729 228.99058263 -341.65234375 232.66015625 C-331.20355775 239.70701192 -317.44396593 237.75150481 -305.65234375 236.09765625 C-304.67716797 235.97132813 -303.70199219 235.845 -302.69726562 235.71484375 C-301.75818359 235.5859375 -300.81910156 235.45703125 -299.8515625 235.32421875 C-299.00811279 235.20900879 -298.16466309 235.09379883 -297.2956543 234.97509766 C-294.90775625 234.46035018 -293.11887001 233.59780152 -290.96484375 232.47265625 C-291.45968765 231.650466 -291.95453156 230.82827576 -292.46437073 229.98117065 C-297.63716657 220.68599673 -298.97947586 212.83526892 -298.8671875 202.23046875 C-298.87660029 200.7258795 -298.88907497 199.22130665 -298.9044342 197.71676636 C-298.93631342 193.80717512 -298.92734666 189.89877102 -298.90905762 185.98913574 C-298.89780123 181.97961023 -298.92629732 177.97037282 -298.95117188 173.9609375 C-298.99402745 166.13126936 -298.99361518 158.30242428 -298.96484375 150.47265625 C-300.84128432 150.47265625 -302.06581978 152.44309299 -303.31640625 153.69140625 Z M-215.96484375 159.47265625 C-215.96484375 174.65265625 -215.96484375 189.83265625 -215.96484375 205.47265625 C-211.67382865 204.04231788 -208.10478012 202.66165635 -204.12890625 200.65234375 C-203.06542969 200.11738281 -202.00195312 199.58242187 -200.90625 199.03125 C-199.26462891 198.19787109 -199.26462891 198.19787109 -197.58984375 197.34765625 C-196.47222656 196.78433594 -195.35460937 196.22101563 -194.203125 195.640625 C-191.45518285 194.25491058 -188.70918395 192.86548678 -185.96484375 191.47265625 C-185.66520556 188.5686095 -185.66520556 188.5686095 -187.05906677 187.01094055 C-187.57123245 186.5024205 -188.08339813 185.99390045 -188.61108398 185.4699707 C-189.1884581 184.88959549 -189.76583221 184.30922028 -190.36070251 183.71125793 C-190.99190506 183.09240219 -191.6231076 182.47354645 -192.2734375 181.8359375 C-192.91475113 181.19649704 -193.55606476 180.55705658 -194.21681213 179.89823914 C-195.57440127 178.54737692 -196.93558554 177.20011966 -198.30004883 175.85620117 C-200.39730623 173.79011889 -202.48368519 171.7135363 -204.56835938 169.63476562 C-205.88609708 168.3261966 -207.20443618 167.01823284 -208.5234375 165.7109375 C-209.15261581 165.08600906 -209.78179413 164.46108063 -210.43003845 163.81721497 C-212.82739973 160.86861373 -212.82739973 160.86861373 -215.96484375 159.47265625 Z " fill="#073396" transform="translate(370.96484375,9.52734375)"/>
<path d="M0 0 C6.48130667 5.82358422 9.08477006 12.4681941 9.55712891 21.12133789 C9.97138139 41.96123257 -2.18028646 59.99585003 -14.96484375 75.47265625 C-15.38459473 75.98860352 -15.8043457 76.50455078 -16.23681641 77.03613281 C-28.98918838 92.68566451 -42.99919148 109.29074907 -59.96484375 120.47265625 C-63.83984375 118.72265625 -63.83984375 118.72265625 -64.96484375 116.47265625 C-65.50011793 113.12719263 -65.66875819 110.62926478 -63.859375 107.65625 C-59.12469258 102.05646511 -53.46496477 97.22718789 -48.05078125 92.296875 C-31.79604445 77.47580403 -7.92969073 53.25469165 -5.76171875 30.32421875 C-5.65583438 25.29471115 -5.92241299 21.69280214 -8.96484375 17.47265625 C-19.4590491 9.25979989 -33.8452783 11.36231045 -46.23828125 12.69140625 C-53.66487449 13.61507482 -60.80403576 15.33168898 -67.96484375 17.47265625 C-67.75335693 18.0135791 -67.54187012 18.55450195 -67.32397461 19.11181641 C-65.24105345 24.80851714 -64.44936709 29.79889561 -64.52734375 35.84765625 C-64.53870361 37.09264893 -64.53870361 37.09264893 -64.55029297 38.36279297 C-64.83415831 48.97355492 -68.46416203 57.15304899 -74.96484375 65.47265625 C-75.44308594 66.08882813 -75.92132813 66.705 -76.4140625 67.33984375 C-82.32129075 74.03569441 -92.97270729 79.86108683 -101.98852539 80.6496582 C-118.3355648 81.11853112 -130.23920208 78.63897073 -142.65234375 67.28515625 C-146.58277526 63.18942621 -151.96484375 56.34177148 -151.96484375 50.47265625 C-152.59874023 50.80475098 -153.23263672 51.1368457 -153.88574219 51.47900391 C-177.14401232 63.65728084 -177.14401232 63.65728084 -186.96484375 68.47265625 C-188.57614398 67.08506374 -190.17860216 65.68720002 -191.77734375 64.28515625 C-192.67066406 63.50785156 -193.56398437 62.73054688 -194.484375 61.9296875 C-196.85800545 59.57848506 -198.39724422 57.40474441 -199.96484375 54.47265625 C-199.30484375 54.47265625 -198.64484375 54.47265625 -197.96484375 54.47265625 C-197.73410156 53.87662598 -197.50335938 53.2805957 -197.265625 52.66650391 C-195.6145638 49.88188755 -193.95699604 48.97001247 -191.15234375 47.37109375 C-190.16717773 46.80366455 -189.18201172 46.23623535 -188.16699219 45.65161133 C-186.58192871 44.75865356 -186.58192871 44.75865356 -184.96484375 43.84765625 C-183.89008789 43.22592529 -182.81533203 42.60419434 -181.70800781 41.96362305 C-176.70308458 39.0834524 -171.68280897 36.2898561 -166.51171875 33.71875 C-156.86439841 29.34459475 -156.86439841 29.34459475 -151.21484375 20.91015625 C-151.00988281 19.99621094 -150.80492187 19.08226563 -150.59375 18.140625 C-149.51380703 13.55925205 -146.82589428 10.13424403 -143.96484375 6.47265625 C-143.48660156 5.85648438 -143.00835937 5.2403125 -142.515625 4.60546875 C-136.60839675 -2.09038191 -125.95698021 -7.91577433 -116.94116211 -8.7043457 C-96.09597438 -9.30223647 -96.09597438 -9.30223647 -87.1796875 -3.33203125 C-80.84184357 -1.02939307 -71.81803768 -4.58530881 -65.46484375 -6.02734375 C-44.2586851 -10.84067418 -18.33610529 -14.25331445 0 0 Z " fill="#FEF9F5" transform="translate(370.96484375,9.52734375)"/>
<path d="M0 0 C2.125 0.9375 2.125 0.9375 4 2 C5.18984588 8.21363957 6.20910192 14.66673532 2.54248047 20.19921875 C-1.25182806 24.57657705 -5.57215811 28.33762601 -9.94335938 32.12329102 C-13.26776388 35.15684959 -16.12994063 38.54153677 -19 42 C-19.70829956 42.84232178 -19.70829956 42.84232178 -20.4309082 43.70166016 C-31.33245827 56.81365364 -44.20810013 72.901207 -43.31640625 90.87890625 C-42.65656624 95.30227815 -40.78596715 97.31227875 -37.5 100.1875 C-26.93107797 105.66069177 -14.75615652 104.32596216 -3.375 102.6875 C-2.40280518 102.54852295 -1.43061035 102.4095459 -0.42895508 102.26635742 C2.38260423 101.8559261 5.19154471 101.43110182 8 101 C9.28261719 100.80664062 10.56523438 100.61328125 11.88671875 100.4140625 C26.54806499 97.83955016 41.4580099 93.14150303 54.96728516 86.90844727 C59.12122827 85.05199491 63.45966665 83.70533519 67.765625 82.24609375 C70.79103105 81.08050857 73.24290012 79.68251592 76 78 C77.67793781 77.28651651 79.35609435 76.57353846 81.03585815 75.86436462 C84.42445303 74.37313753 87.69323304 72.65345957 90.98046875 70.953125 C92.48862909 70.18299969 93.99710187 69.41348599 95.50585938 68.64453125 C97.85910915 67.44311324 100.21026157 66.23820987 102.55639648 65.02294922 C104.83813268 63.84281447 107.1271549 62.67801801 109.41796875 61.515625 C110.11907272 61.14802063 110.8201767 60.78041626 111.54252625 60.40167236 C116.46883657 57.92473422 116.46883657 57.92473422 119.09638977 58.29705811 C121.7627316 59.28165219 122.95509598 60.88790475 124.75 63.0625 C125.36359375 63.79597656 125.9771875 64.52945313 126.609375 65.28515625 C127.06828125 65.85105469 127.5271875 66.41695313 128 67 C126.68146627 70.10931116 125.6065803 71.57976663 122.640625 73.19140625 C121.60035156 73.7649585 121.60035156 73.7649585 120.5390625 74.35009766 C119.78367188 74.75019043 119.02828125 75.1502832 118.25 75.5625 C117.46882812 75.9857959 116.68765625 76.4090918 115.8828125 76.84521484 C109.30925707 80.37540987 102.66228709 83.7659051 96 87.125 C95.03868164 87.6104126 94.07736328 88.0958252 93.08691406 88.59594727 C92.19198242 89.04123779 91.29705078 89.48652832 90.375 89.9453125 C89.57835937 90.34250488 88.78171875 90.73969727 87.9609375 91.14892578 C86 92 86 92 84 92 C83.814375 92.804375 83.62875 93.60875 83.4375 94.4375 C79.92790494 103.13519211 73.29447102 109.71396812 65 114 C58.05039286 116.71476345 51.66554114 117.4466451 44.25 117.3125 C42.89068359 117.31733398 42.89068359 117.31733398 41.50390625 117.32226562 C37.64021712 117.2912433 34.53588785 117.18462803 30.859375 115.91796875 C27.03540557 114.69032829 23.85177706 115.26665455 20 116 C19.21367188 116.14824219 18.42734375 116.29648437 17.6171875 116.44921875 C15.07394371 116.94750319 12.53672937 117.46959295 10 118 C-8.97812935 121.96815432 -30.69845758 124.82157813 -47.8046875 113.73828125 C-54.14915952 108.71463347 -57.46124753 102.57939599 -58.40625 94.546875 C-59.10410334 66.28381461 -40.78958614 43.25700039 -23 23 C-22.24976563 22.13761719 -21.49953125 21.27523437 -20.7265625 20.38671875 C-16.48637276 15.58780364 -12.07527945 10.97858964 -7.5625 6.4375 C-7.04179932 5.91212646 -6.52109863 5.38675293 -5.98461914 4.84545898 C-2.2462685 1.12313425 -2.2462685 1.12313425 0 0 Z " fill="#FDF9F7" transform="translate(68,142)"/>
<path d="M0 0 C3.25609401 5.48256871 3.5176413 12.15832476 3.4375 18.375 C3.42992676 19.20499512 3.42235352 20.03499023 3.41455078 20.89013672 C3.13068544 31.50089867 -0.49931828 39.68039274 -7 48 C-7.71736328 48.92425781 -7.71736328 48.92425781 -8.44921875 49.8671875 C-14.356447 56.56303816 -25.00786354 62.38843058 -34.02368164 63.17700195 C-50.39525417 63.64657854 -62.40142258 61.18445139 -74.75 49.6875 C-79.23063045 44.94515048 -82.63065866 40.17414144 -83.39453125 33.609375 C-81.39774117 28.44121244 -78.2868552 27.55313925 -73.37939453 25.32080078 C-72.14926193 24.79602947 -70.91861578 24.2724606 -69.6875 23.75 C-68.41970593 23.19023158 -67.15262509 22.62884526 -65.88623047 22.06591797 C-61.94398682 20.3291396 -57.97645935 18.65668284 -54 17 C-53.37953796 16.74053589 -52.75907593 16.48107178 -52.11981201 16.21374512 C-39.41888071 10.91574131 -26.58433415 6.01953268 -13.5 1.75 C-12.5920166 1.44980957 -11.6840332 1.14961914 -10.74853516 0.84033203 C-9.91370605 0.57849121 -9.07887695 0.31665039 -8.21875 0.046875 C-7.1349707 -0.29585449 -7.1349707 -0.29585449 -6.02929688 -0.64550781 C-3.61273343 -1.06765051 -2.24977643 -0.99308283 0 0 Z " fill="#FE7C07" transform="translate(303,27)"/>
<path d="M0 0 C1.9480957 -0.04350586 1.9480957 -0.04350586 3.93554688 -0.08789062 C14.54940773 -0.15719258 24.88507852 1.32390658 33.3125 8.3125 C38.73759316 13.98992307 41.42336534 18.97782391 41.8125 26.75 C41.22454187 45.63521509 30.28126079 62.59558336 18.61181641 76.73681641 C17.34416293 78.27410231 16.09947141 79.83023211 14.85546875 81.38671875 C8.04219478 89.7428861 0.47160356 97.36441696 -7.125 105 C-7.65732239 105.53758942 -8.18964478 106.07517883 -8.73809814 106.62905884 C-10.27656048 108.17928348 -11.82239471 109.72172746 -13.37109375 111.26171875 C-14.27400146 112.16237061 -15.17690918 113.06302246 -16.10717773 113.9909668 C-18.51915836 116.1610419 -20.84833501 117.76133553 -23.6875 119.3125 C-24.10546875 117.21875 -24.10546875 117.21875 -23.6875 114.3125 C-21.73757594 111.84307353 -19.37339798 109.86685575 -17 107.8125 C-15.61680205 106.56827973 -14.23532391 105.32214519 -12.85546875 104.07421875 C-12.15599121 103.44692871 -11.45651367 102.81963867 -10.73583984 102.17333984 C-1.95255958 94.19405949 6.01659863 85.67426592 13.3125 76.3125 C14.13492188 75.30703125 14.95734375 74.3015625 15.8046875 73.265625 C22.11620218 65.46502483 26.93463451 57.33069294 31.3125 48.3125 C31.69535156 47.58675781 32.07820312 46.86101563 32.47265625 46.11328125 C35.37977555 39.8798766 35.23724146 31.99685166 34.3125 25.3125 C32.23488298 21.4929508 30.24459568 18.78942859 26.5 16.5625 C25.87480469 16.17578125 25.24960937 15.7890625 24.60546875 15.390625 C0.09447821 3.86586625 -36.33079108 17.37909259 -60.1875 25.87890625 C-87.1287248 35.82054085 -113.01017148 48.51550931 -138.33203125 62.0078125 C-142.41525499 64.18347189 -146.54085564 66.26045479 -150.6875 68.3125 C-151.86012904 67.19371617 -153.02545138 66.06726949 -154.1875 64.9375 C-154.8371875 64.31101563 -155.486875 63.68453125 -156.15625 63.0390625 C-157.6875 61.3125 -157.6875 61.3125 -157.6875 59.3125 C-155.97631836 58.05419922 -155.97631836 58.05419922 -153.52734375 56.6171875 C-152.60469727 56.07433105 -151.68205078 55.53147461 -150.73144531 54.97216797 C-149.70631836 54.38322754 -148.68119141 53.79428711 -147.625 53.1875 C-146.55733398 52.57148926 -145.48966797 51.95547852 -144.38964844 51.32080078 C-100.90138334 26.4997271 -50.99769585 0.37406623 0 0 Z " fill="#FF7C08" transform="translate(334.6875,4.6875)"/>
<path d="M0 0 C0.71854571 4.53777881 1.06566119 8.38649653 -1.54248047 12.33544922 C-3.74832937 14.66151352 -6.04182527 16.8075423 -8.4375 18.9375 C-10.10492488 20.50815685 -11.76902297 22.08235334 -13.4296875 23.66015625 C-14.62609863 24.78188232 -14.62609863 24.78188232 -15.84667969 25.92626953 C-20.01347986 29.93905873 -23.51056595 34.39197721 -27 39 C-27.7425 39.93714844 -28.485 40.87429687 -29.25 41.83984375 C-40.39088047 56.16114449 -48.94287632 70.21124312 -47 89 C-46.02675282 93.01723306 -44.19431354 95.24413047 -40.6484375 97.48828125 C-24.8243217 105.77376961 -5.25988139 102.74720689 11.4765625 98.61523438 C14.0078598 97.99808372 16.54741853 97.44207217 19.09375 96.890625 C48.57359551 90.17897377 77.73248922 77.09450096 104.453125 63.18359375 C105.29085449 62.75022705 106.12858398 62.31686035 106.99169922 61.87036133 C108.52803924 61.0675678 110.05651479 60.24944829 111.57470703 59.4128418 C113.5859375 58.3515625 113.5859375 58.3515625 117 57 C119.4765625 57.7734375 119.4765625 57.7734375 121 59 C121 60.32 121 61.64 121 63 C85.34973723 81.95365451 48.75419255 99.65803931 9 108 C8.14656006 108.19142578 7.29312012 108.38285156 6.41381836 108.58007812 C-1.40526362 110.20055349 -9.09579555 110.36706108 -17.0625 110.375 C-18.35994141 110.39949219 -19.65738281 110.42398438 -20.99414062 110.44921875 C-31.04950964 110.47979767 -39.41561527 108.65547614 -47.53125 102.4921875 C-52.03260482 97.91900255 -54.13925646 91.34719576 -54.25 85.0625 C-53.74663143 53.01470113 -24.82655427 24.0867406 -3.8125 2.6875 C-1 0 -1 0 0 0 Z " fill="#FF7E0B" transform="translate(68,148)"/>
<path d="M0 0 C0.99 0.66 1.98 1.32 3 2 C3 2.99 3 3.98 3 5 C1.80503906 5.38671875 0.61007812 5.7734375 -0.62109375 6.171875 C-11.45428002 9.67268873 -11.45428002 9.67268873 -21.94140625 14.07421875 C-24.37748055 15.16975881 -26.85565726 16.05060655 -29.375 16.9375 C-38.84204944 20.32887732 -47.76472062 24.81511998 -56.6940918 29.40917969 C-61.78426975 32 -61.78426975 32 -64 32 C-63.60515242 21.53653904 -58.1919852 13.16779177 -50.70703125 6.078125 C-36.5144151 -4.81721669 -16.32001655 -8.59939333 0 0 Z " fill="#FE7F0E" transform="translate(282,5)"/>
<path d="M0 0 C-0.98291707 6.9168238 -5.1702109 11.53931383 -10.3359375 16.03125 C-19.13887461 22.58485618 -27.83809855 24.51702853 -38.6875 24.375 C-39.58533203 24.38660156 -40.48316406 24.39820313 -41.40820312 24.41015625 C-47.03556639 24.38542059 -50.99378976 23.58871063 -56 21 C-55 19 -55 19 -52.46582031 17.99780273 C-51.34788086 17.64661377 -50.22994141 17.2954248 -49.078125 16.93359375 C-47.83401855 16.53446777 -46.58991211 16.1353418 -45.30810547 15.72412109 C-44.31396637 15.40927765 -44.31396637 15.40927765 -43.29974365 15.08807373 C-32.02984328 11.5110893 -21.06092753 7.62908063 -10.29785156 2.69311523 C-9.51635742 2.33805908 -8.73486328 1.98300293 -7.9296875 1.6171875 C-7.26179199 1.30378418 -6.59389648 0.99038086 -5.90576172 0.66748047 C-4 0 -4 0 0 0 Z " fill="#1B449F" transform="translate(151,235)"/>
<path d="M0 0 C0.66 0.33 1.32 0.66 2 1 C-1.63 4.63 -5.26 8.26 -9 12 C-9.66 11.67 -10.32 11.34 -11 11 C-9.73347137 9.53792657 -8.46161082 8.08047074 -7.1875 6.625 C-6.47980469 5.81289063 -5.77210937 5.00078125 -5.04296875 4.1640625 C-3 2 -3 2 0 0 Z " fill="#6580BE" transform="translate(91,29)"/>
<path d="M0 0 C1.65 0 3.3 0 5 0 C5 0.33 5 0.66 5 1 C3.35 1 1.7 1 0 1 C0 0.67 0 0.34 0 0 Z " fill="#FECC9F" transform="translate(277,287)"/>
</svg>
